<?xml version="1.0" standalone="no"?>
<!DOCTYPE svg PUBLIC "-//W3C//DTD SVG 20010904//EN"
 "http://www.w3.org/TR/2001/REC-SVG-20010904/DTD/svg10.dtd">
<svg version="1.0" xmlns="http://www.w3.org/2000/svg"
 width="1920.000000pt" height="1080.000000pt" viewBox="0 0 1920.000000 1080.000000"
 preserveAspectRatio="xMidYMid meet">
<metadata>
Created by potrace 1.16, written by Peter Selinger 2001-2019
</metadata>
<g transform="translate(0.000000,1080.000000) scale(0.100000,-0.100000)"
fill="#000000" stroke="none">
<path d="M4775 10331 c-104 -10 -215 -25 -245 -34 -30 -9 -82 -19 -115 -23
-33 -4 -78 -15 -100 -24 -23 -10 -61 -21 -85 -25 -25 -4 -65 -15 -90 -25 -25
-10 -65 -25 -90 -33 -115 -39 -162 -57 -182 -72 -13 -8 -29 -15 -38 -15 -16 0
-344 -163 -370 -184 -8 -7 -26 -17 -40 -24 -101 -48 -445 -294 -595 -425 -164
-144 -522 -514 -611 -632 -49 -65 -95 -124 -114 -146 -8 -9 -26 -33 -40 -53
-14 -20 -36 -52 -50 -71 -65 -89 -148 -214 -171 -259 -9 -17 -38 -62 -63 -101
-25 -38 -46 -75 -46 -81 0 -6 -9 -19 -19 -28 -11 -10 -22 -30 -26 -44 -3 -15
-15 -36 -25 -47 -9 -11 -23 -37 -29 -57 -7 -21 -16 -40 -21 -43 -10 -6 -125
-238 -134 -272 -4 -11 -13 -27 -21 -33 -8 -7 -15 -20 -15 -29 0 -9 -14 -43
-30 -76 -16 -33 -30 -67 -30 -75 0 -8 -9 -28 -20 -45 -11 -16 -20 -37 -20 -46
0 -8 -11 -37 -24 -65 -14 -27 -30 -69 -36 -93 -6 -24 -18 -54 -25 -65 -7 -12
-17 -39 -21 -61 -4 -22 -15 -56 -25 -75 -9 -20 -21 -54 -25 -75 -3 -22 -13
-52 -20 -67 -8 -15 -19 -51 -25 -80 -6 -29 -18 -73 -28 -98 -10 -25 -22 -67
-25 -95 -4 -27 -15 -72 -25 -100 -10 -27 -22 -75 -26 -105 -4 -30 -15 -82 -25
-115 -9 -33 -21 -91 -24 -130 -4 -38 -16 -101 -26 -140 -10 -38 -21 -113 -25
-165 -4 -52 -13 -126 -21 -165 -26 -126 -37 -429 -30 -895 4 -343 9 -463 21
-525 9 -44 22 -138 30 -210 8 -71 21 -154 29 -183 8 -29 18 -83 22 -120 4 -37
15 -90 24 -118 10 -27 21 -75 25 -105 4 -30 14 -70 22 -89 8 -19 21 -66 29
-103 7 -37 20 -80 28 -95 7 -15 17 -47 21 -72 4 -25 14 -56 22 -69 9 -13 21
-47 28 -75 14 -55 46 -140 75 -197 10 -19 21 -52 25 -72 4 -20 13 -41 21 -48
8 -6 19 -30 25 -53 6 -22 19 -52 29 -66 9 -14 20 -35 24 -47 4 -11 34 -72 66
-135 33 -62 69 -132 80 -154 11 -23 27 -47 35 -54 8 -7 15 -17 15 -23 0 -6 11
-27 23 -46 13 -20 38 -58 55 -86 163 -261 451 -597 692 -806 92 -79 292 -227
390 -288 25 -15 59 -36 75 -47 17 -10 46 -27 65 -36 19 -10 42 -22 50 -27 8
-5 29 -16 45 -24 17 -7 39 -18 50 -24 46 -26 153 -73 165 -73 7 0 27 -9 44
-19 17 -10 47 -22 66 -26 19 -4 51 -15 70 -25 19 -10 55 -21 80 -25 25 -4 65
-15 90 -25 25 -10 68 -21 95 -25 28 -3 82 -15 120 -25 83 -22 349 -45 525 -45
178 0 454 24 525 45 33 10 89 21 125 25 36 4 85 15 110 25 25 10 65 21 90 25
25 4 61 15 80 25 20 10 54 22 75 25 22 4 54 15 70 25 17 10 46 21 65 25 19 4
51 16 70 26 36 18 118 56 180 83 19 9 42 20 50 26 8 5 26 15 40 21 14 5 46 22
71 37 26 15 69 40 95 55 98 56 227 137 280 177 18 14 52 39 75 55 323 231 775
692 1027 1048 12 18 34 49 50 71 29 41 55 82 97 156 15 25 37 63 50 85 65 107
205 391 205 414 0 7 8 25 19 39 10 15 22 43 26 62 4 19 15 49 25 65 10 17 22
48 26 70 3 22 15 56 24 75 10 19 21 55 25 80 4 25 14 57 21 72 8 15 21 64 30
109 13 68 13 84 2 94 -9 9 -88 14 -286 18 l-273 4 -18 -23 c-22 -28 -23 -31
-87 -221 -9 -27 -24 -64 -35 -84 -10 -20 -19 -43 -19 -50 0 -8 -14 -41 -30
-74 -16 -33 -30 -67 -30 -76 0 -9 -9 -28 -20 -42 -11 -14 -20 -31 -20 -38 0
-12 -47 -119 -73 -164 -6 -11 -17 -33 -24 -50 -8 -16 -19 -39 -26 -50 -6 -11
-21 -41 -34 -67 -12 -25 -27 -49 -32 -52 -5 -4 -12 -19 -16 -35 -3 -16 -13
-35 -21 -42 -8 -6 -23 -30 -34 -53 -11 -22 -33 -61 -50 -86 -16 -25 -34 -56
-40 -69 -6 -13 -20 -35 -31 -50 -11 -14 -40 -55 -64 -91 -24 -36 -61 -90 -82
-120 -62 -90 -273 -339 -364 -429 -83 -83 -251 -231 -299 -264 -14 -9 -59 -42
-100 -72 -41 -30 -88 -62 -105 -70 -16 -9 -52 -29 -80 -45 -27 -17 -66 -37
-85 -45 -19 -8 -53 -24 -75 -35 -41 -20 -94 -40 -175 -66 -25 -8 -73 -24 -107
-35 -146 -48 -618 -49 -728 0 -23 10 -62 22 -86 26 -24 4 -60 15 -79 25 -19
10 -84 42 -143 71 -59 28 -124 65 -144 81 -20 15 -39 28 -44 28 -15 0 -243
195 -301 258 -72 79 -218 258 -244 299 -10 17 -37 57 -58 90 -78 117 -85 129
-141 238 -14 28 -29 57 -34 65 -5 8 -24 47 -41 85 -17 39 -40 87 -50 107 -11
20 -20 43 -20 51 0 8 -11 34 -24 59 -13 25 -27 60 -31 79 -4 19 -16 50 -25 69
-10 20 -22 54 -26 75 -4 22 -15 56 -25 75 -9 19 -20 55 -24 80 -4 25 -14 58
-22 73 -8 16 -20 61 -28 100 -8 40 -21 91 -29 113 -8 23 -17 68 -21 100 -4 33
-15 86 -25 119 -11 33 -22 94 -26 135 -3 41 -14 113 -24 160 -10 47 -21 135
-25 195 -4 61 -14 164 -23 230 -25 175 -25 910 0 1105 9 74 20 187 23 250 4
63 15 156 25 205 10 50 22 126 25 170 4 43 15 111 25 150 10 38 21 97 25 130
3 33 15 87 25 120 10 33 22 85 25 115 3 30 15 82 25 115 11 33 26 88 35 123
35 142 48 189 65 232 10 25 22 63 25 85 4 22 15 56 25 75 10 19 21 53 24 75 4
21 16 55 26 75 9 19 21 51 25 70 4 19 15 49 25 65 10 17 21 46 25 65 4 19 16
49 26 66 10 17 19 38 19 45 0 8 14 41 30 74 16 33 30 67 30 75 0 8 9 26 20 40
11 14 20 31 20 37 0 11 38 94 73 158 6 11 17 34 24 50 8 17 19 39 26 50 6 11
21 40 34 65 13 25 37 68 53 95 16 28 36 64 44 82 9 17 21 35 27 39 6 3 17 21
25 38 22 48 139 222 209 313 22 28 56 73 75 100 19 26 41 55 50 64 8 9 37 43
65 75 124 148 390 398 500 470 28 19 68 47 90 63 22 17 54 37 71 45 17 7 34
18 37 23 7 11 204 109 287 143 30 12 78 28 105 35 28 8 68 20 90 29 23 8 81
19 130 25 50 6 127 15 173 20 54 7 109 7 155 1 40 -5 115 -15 167 -21 52 -6
113 -18 135 -28 23 -10 59 -21 80 -25 22 -4 55 -16 73 -27 18 -10 39 -19 45
-19 7 0 26 -7 42 -16 17 -9 50 -28 75 -41 58 -31 107 -61 156 -95 21 -16 55
-39 75 -52 19 -13 58 -48 87 -77 48 -49 52 -57 52 -100 0 -26 -3 -54 -6 -63
-6 -15 -97 -86 -110 -86 -7 0 -103 -62 -139 -90 -35 -27 -228 -220 -244 -244
-9 -13 -29 -42 -46 -66 -45 -63 -72 -109 -99 -167 -14 -28 -30 -54 -35 -58 -6
-3 -11 -13 -11 -22 0 -8 -11 -41 -24 -72 -39 -92 -74 -212 -81 -276 -4 -33
-13 -95 -21 -139 -8 -43 -14 -106 -14 -140 0 -81 45 -367 63 -403 8 -15 17
-41 21 -58 7 -26 51 -122 96 -206 56 -105 275 -308 361 -334 13 -4 35 -16 49
-25 14 -10 44 -22 65 -26 22 -3 62 -15 88 -25 69 -27 310 -27 388 0 30 10 72
21 94 25 22 4 54 16 70 26 17 10 44 21 61 24 18 4 40 16 50 27 9 10 22 19 29
19 21 0 132 78 204 145 123 113 213 218 263 307 9 16 22 37 30 46 7 9 28 49
47 87 18 39 42 86 51 105 10 19 21 50 25 69 4 18 15 52 25 75 10 22 21 66 25
96 4 30 16 91 26 135 26 111 26 323 0 426 -10 41 -22 96 -26 124 -4 27 -15 66
-25 85 -10 20 -21 52 -25 73 -4 20 -13 41 -21 47 -7 7 -18 28 -25 48 -7 20
-21 48 -31 62 -22 29 -103 152 -124 189 -8 14 -28 44 -45 66 -16 22 -41 56
-54 75 -189 273 -600 672 -860 837 -27 17 -61 40 -75 50 -14 10 -38 25 -55 34
-16 9 -50 28 -75 42 -25 15 -83 45 -130 67 -47 23 -92 45 -100 49 -46 24 -60
30 -110 51 -30 12 -77 28 -103 35 -26 7 -54 18 -61 24 -7 6 -42 17 -78 26 -36
8 -80 21 -99 29 -19 7 -61 17 -94 21 -32 4 -86 15 -120 25 -135 41 -546 56
-820 31z"/>
<path d="M4673 8070 c-12 -5 -35 -28 -50 -51 l-28 -43 4 -2830 c3 -2637 5
-2831 20 -2857 20 -33 57 -63 88 -73 29 -9 72 14 112 59 l31 36 0 2836 0 2837
-27 39 c-37 54 -91 71 -150 47z"/>
<path d="M5059 7384 l-34 -35 0 -2142 c0 -2022 1 -2144 17 -2170 37 -55 146
-59 194 -6 19 21 19 68 19 2175 l0 2153 -35 30 c-27 24 -45 30 -81 31 -39 0
-50 -5 -80 -36z"/>
<path d="M4255 7301 c-16 -10 -39 -28 -50 -41 -20 -22 -20 -39 -23 -1064 -2
-572 0 -1538 4 -2146 l6 -1104 30 -28 c40 -37 89 -45 139 -23 74 34 69 -131
69 2212 0 2302 5 2135 -62 2187 -41 31 -72 33 -113 7z"/>
<path d="M13530 6575 c0 -98 -4 -145 -11 -145 -6 0 -28 15 -49 33 -85 72 -207
68 -281 -10 -42 -44 -55 -66 -75 -131 -35 -116 -1 -267 77 -342 31 -29 105
-60 144 -60 39 0 113 31 144 61 40 38 51 37 51 -6 l0 -35 85 0 85 0 0 390 0
390 -85 0 -85 0 0 -145z m-45 -219 c59 -63 59 -214 -1 -273 -27 -28 -39 -33
-81 -33 -88 0 -123 48 -123 169 0 81 10 113 46 146 21 20 38 25 77 25 44 0 54
-4 82 -34z"/>
<path d="M9643 6690 c-115 -24 -209 -97 -257 -200 -28 -61 -30 -72 -30 -180 0
-104 3 -120 27 -170 58 -122 152 -188 300 -212 69 -11 89 -10 163 5 132 27
134 29 134 104 0 34 -1 63 -3 63 -2 0 -23 -10 -48 -22 -37 -19 -60 -23 -151
-23 -104 0 -107 1 -144 31 -22 17 -50 53 -64 80 -22 42 -25 61 -25 149 0 83 4
107 22 140 61 114 180 153 319 104 32 -11 67 -23 77 -26 16 -5 18 1 15 58 l-3
63 -50 18 c-58 21 -219 32 -282 18z"/>
<path d="M10345 6691 c-83 -23 -137 -64 -160 -118 -8 -20 -15 -64 -15 -100 0
-125 53 -176 227 -218 99 -24 153 -46 163 -66 11 -20 13 -69 4 -94 -27 -70
-247 -57 -386 22 -5 2 -8 -29 -8 -69 0 -73 0 -74 31 -85 17 -7 80 -20 140 -30
95 -15 119 -15 187 -4 81 14 136 36 163 67 54 62 73 168 44 253 -28 84 -93
120 -294 162 -86 18 -113 40 -109 87 6 76 116 104 263 66 117 -30 105 -35 105
38 l0 63 -56 13 c-69 16 -258 24 -299 13z"/>
<path d="M11113 6505 c-115 -28 -187 -98 -213 -207 -32 -130 26 -284 125 -335
37 -20 129 -42 174 -43 51 0 149 28 191 56 84 56 132 187 110 299 -14 72 -32
109 -74 153 -39 42 -75 61 -146 78 -66 16 -99 16 -167 -1z m156 -131 c34 -25
61 -91 61 -154 0 -63 -27 -129 -61 -154 -14 -10 -43 -16 -74 -16 -43 0 -55 4
-77 28 -40 43 -48 66 -48 142 0 78 14 116 56 149 33 26 109 28 143 5z"/>
<path d="M12706 6506 c-22 -7 -59 -29 -82 -49 -23 -20 -44 -33 -48 -30 -3 4
-6 21 -6 40 l0 33 -85 0 -85 0 0 -280 0 -280 85 0 85 0 0 169 c0 185 8 222 56
260 39 31 103 29 135 -5 23 -25 24 -30 27 -225 l4 -199 84 0 84 0 0 198 c0
215 -8 261 -53 317 -19 24 -43 39 -79 50 -59 17 -69 17 -122 1z"/>
<path d="M11652 6288 c3 -204 4 -215 28 -262 29 -58 57 -81 121 -97 59 -16
124 1 186 48 24 18 45 33 48 33 3 0 5 -16 5 -35 l0 -35 85 0 85 0 0 280 0 280
-85 0 -85 0 0 -176 c0 -184 -3 -198 -48 -246 -21 -23 -34 -28 -73 -28 -89 0
-99 27 -99 283 l0 167 -86 0 -85 0 3 -212z"/>
<path d="M5921 6248 c-23 -11 -50 -32 -61 -45 -20 -25 -20 -44 -20 -1314 l0
-1287 26 -32 c28 -33 73 -60 99 -60 27 0 83 44 101 80 16 33 18 119 22 1291 4
1254 4 1256 -17 1297 -19 38 -56 72 -92 85 -9 3 -35 -4 -58 -15z"/>
<path d="M5481 5985 c-28 -26 -40 -46 -45 -76 -4 -23 -4 -485 0 -1028 l7 -986
29 -27 c40 -37 89 -45 138 -23 72 32 68 -16 74 1068 6 1072 9 1020 -58 1079
-46 40 -95 38 -145 -7z"/>
<path d="M6355 5951 c-16 -10 -39 -28 -50 -41 -20 -22 -20 -36 -20 -926 l0
-904 37 -37 c32 -31 43 -36 82 -36 50 0 89 26 108 73 16 41 23 1731 7 1787 -9
34 -22 53 -52 74 -47 34 -71 36 -112 10z"/>
<path d="M3833 5934 c-28 -16 -45 -34 -49 -52 -3 -15 -8 -33 -10 -41 -3 -8 -2
-411 2 -895 l7 -881 33 -32 c27 -28 39 -33 79 -33 40 0 52 5 81 34 l34 34 0
898 c0 495 -3 909 -6 921 -7 24 -81 73 -111 73 -10 0 -37 -12 -60 -26z"/>
<path d="M7174 5745 c-75 -45 -74 -34 -74 -636 0 -508 1 -531 20 -568 27 -55
64 -81 113 -81 32 0 46 7 78 39 l39 39 0 570 0 570 -26 32 c-27 31 -73 60 -96
60 -7 0 -32 -11 -54 -25z"/>
<path d="M3428 5647 c-20 -12 -46 -38 -58 -58 -19 -35 -20 -53 -20 -372 0
-368 2 -382 60 -431 50 -41 96 -36 148 17 l42 43 0 362 c0 407 3 392 -75 437
-50 30 -50 30 -97 2z"/>
<path d="M6790 5551 c-19 -10 -44 -32 -56 -49 -20 -29 -21 -48 -28 -370 -8
-381 -5 -397 59 -446 51 -39 96 -35 147 12 l41 38 -2 370 c-2 403 0 391 -62
435 -39 28 -62 30 -99 10z"/>
<path d="M15550 5420 l0 -70 85 0 85 0 0 70 0 70 -85 0 -85 0 0 -70z"/>
<path d="M7620 5443 c-17 -14 -36 -37 -41 -51 -5 -14 -12 -199 -15 -412 -7
-425 -6 -439 49 -490 47 -44 100 -42 153 5 l39 35 0 417 c0 230 -3 429 -8 443
-10 36 -73 80 -113 80 -21 0 -44 -10 -64 -27z"/>
<path d="M9397 5453 c-4 -3 -7 -172 -7 -375 l0 -368 90 0 89 0 3 123 3 122
110 7 c61 3 134 14 163 23 125 38 184 165 143 307 -25 89 -95 138 -224 157
-84 12 -359 15 -370 4z m381 -151 c53 -50 55 -131 3 -182 -21 -22 -40 -29 -88
-35 -34 -4 -76 -4 -92 0 l-31 7 0 112 c0 62 3 116 7 119 3 4 43 7 89 7 76 0
84 -2 112 -28z"/>
<path d="M8473 5289 c-43 -27 -50 -57 -56 -234 -7 -187 5 -230 68 -252 55 -19
106 -9 141 28 l29 30 3 162 c4 192 -3 224 -56 261 -45 31 -84 32 -129 5z"/>
<path d="M10438 5275 c-25 -9 -62 -31 -81 -50 -37 -37 -47 -33 -47 21 0 23 -2
24 -85 24 l-85 0 0 -280 0 -280 85 0 85 0 0 155 c0 137 3 161 21 200 29 62 87
90 165 80 l55 -7 -3 74 -3 73 -30 2 c-16 1 -51 -4 -77 -12z"/>
<path d="M10843 5275 c-120 -29 -188 -99 -213 -216 -25 -116 16 -244 96 -305
38 -29 148 -64 202 -64 53 0 150 29 192 56 54 36 86 88 106 170 16 65 16 76 1
142 -29 125 -90 188 -214 218 -69 16 -101 16 -170 -1z m156 -131 c48 -34 73
-133 55 -224 -4 -17 -21 -47 -39 -66 -29 -31 -38 -34 -87 -34 -46 0 -58 4 -80
28 -40 43 -48 66 -48 142 0 78 14 116 56 149 33 26 109 28 143 5z"/>
<path d="M11512 5273 c-128 -45 -195 -224 -146 -386 32 -105 119 -177 215
-177 53 0 87 13 137 51 28 21 54 34 57 29 11 -18 -7 -104 -27 -133 -11 -15
-32 -34 -48 -42 -42 -22 -168 -20 -230 4 l-50 19 0 -57 0 -58 40 -12 c170 -51
392 0 447 102 39 72 43 106 43 385 l0 272 -85 0 -85 0 0 -35 c0 -43 -11 -44
-60 -2 -36 30 -108 58 -148 56 -9 0 -36 -7 -60 -16z m206 -129 c39 -27 56 -73
56 -150 -1 -107 -44 -164 -124 -164 -81 0 -122 56 -122 164 0 116 37 166 122
166 25 0 56 -7 68 -16z"/>
<path d="M12412 5269 c-30 -12 -62 -33 -74 -49 -26 -35 -38 -30 -38 16 l0 34
-85 0 -85 0 0 -280 0 -280 85 0 85 0 0 160 c0 143 2 165 21 201 28 56 90 84
165 74 l54 -6 0 69 c0 54 -3 71 -16 76 -26 10 -56 6 -112 -15z"/>
<path d="M12766 5274 c-110 -18 -106 -15 -106 -80 0 -49 2 -55 18 -49 59 24
116 35 178 35 89 0 137 -26 142 -78 l3 -32 -75 0 c-101 0 -212 -24 -253 -56
-40 -31 -63 -81 -63 -141 0 -161 207 -239 338 -127 22 19 43 34 46 34 3 0 6
-16 6 -35 l0 -35 86 0 86 0 -4 218 -3 217 -27 42 c-32 49 -70 71 -153 89 -73
16 -116 16 -219 -2z m232 -336 c6 -72 -53 -138 -125 -138 -50 0 -81 22 -89 64
-14 80 32 118 141 114 l70 -3 3 -37z"/>
<path d="M13651 5277 c-19 -6 -51 -27 -73 -47 -21 -20 -40 -35 -43 -32 -3 3
-5 20 -5 39 l0 33 -85 0 -85 0 0 -280 0 -280 85 0 85 0 0 175 c0 156 2 180 20
215 24 47 45 60 99 60 67 0 71 -12 71 -247 l0 -203 90 0 90 0 0 174 c0 187 9
230 52 260 28 20 87 20 113 0 19 -14 20 -28 23 -224 l3 -210 85 0 84 0 0 203
c0 114 -5 219 -11 242 -16 57 -63 103 -127 121 -74 22 -130 6 -195 -55 -46
-43 -49 -44 -60 -26 -19 34 -65 69 -109 82 -50 15 -61 15 -107 0z"/>
<path d="M14745 5274 c-22 -8 -56 -31 -76 -50 -39 -38 -49 -33 -49 22 0 23 -2
24 -85 24 l-85 0 0 -280 0 -280 85 0 85 0 0 158 c0 173 9 224 48 265 36 38
101 39 131 1 20 -25 21 -40 21 -225 l0 -199 85 0 85 0 0 156 c0 85 5 175 11
199 16 64 51 95 106 95 38 0 46 -4 63 -32 18 -30 20 -51 20 -225 l0 -193 86 0
87 0 -5 218 c-4 197 -7 221 -26 259 -26 51 -61 76 -127 93 -45 11 -56 10 -106
-9 -30 -11 -70 -37 -89 -56 l-33 -35 -34 39 c-21 25 -50 45 -80 55 -55 19 -66
19 -118 0z"/>
<path d="M16196 5270 c-27 -10 -64 -33 -81 -50 -36 -34 -45 -31 -45 17 l0 33
-85 0 -85 0 0 -280 0 -280 85 0 85 0 0 164 c0 178 8 217 57 262 32 30 100 33
133 6 27 -22 39 -109 40 -299 l0 -133 80 0 80 0 0 211 c0 204 -1 212 -25 264
-21 42 -35 58 -68 74 -64 31 -114 34 -171 11z"/>
<path d="M16777 5276 c-121 -38 -198 -192 -168 -338 7 -35 25 -85 40 -113 68
-122 229 -151 330 -59 21 18 41 34 45 34 13 0 5 -97 -12 -129 -26 -51 -72 -71
-165 -71 -46 0 -92 6 -114 15 -58 24 -63 21 -63 -39 l0 -54 53 -14 c28 -7 97
-13 152 -13 164 1 252 45 301 150 23 49 24 57 24 338 l0 287 -85 0 -85 0 0
-35 c0 -43 -9 -44 -50 -5 -30 28 -114 61 -149 59 -9 -1 -33 -6 -54 -13z m202
-137 c34 -32 51 -81 51 -144 0 -72 -20 -119 -62 -145 -63 -38 -139 -16 -173
50 -18 34 -20 151 -4 183 6 12 23 34 37 50 22 23 34 27 77 27 39 0 57 -5 74
-21z"/>
<path d="M8064 5273 c-12 -2 -34 -18 -50 -34 -29 -30 -29 -32 -32 -169 l-3
-139 34 -38 c32 -34 40 -38 86 -38 44 0 55 4 83 33 l33 32 0 145 0 145 -30 29
c-30 30 -79 43 -121 34z"/>
<path d="M15550 4990 l0 -280 85 0 85 0 0 280 0 280 -85 0 -85 0 0 -280z"/>
<path d="M8873 5199 c-50 -32 -73 -80 -73 -151 0 -44 6 -70 21 -94 27 -44 47
-54 109 -54 47 0 55 3 86 37 33 35 34 40 34 114 0 69 -3 81 -26 109 -29 34
-73 60 -101 60 -10 0 -32 -10 -50 -21z"/>
<path d="M9397 4223 c-4 -3 -7 -172 -7 -375 l0 -368 265 0 265 0 0 70 0 70
-172 2 -173 3 -3 303 -2 302 -83 0 c-46 0 -87 -3 -90 -7z"/>
<path d="M10168 4045 c-43 -7 -82 -16 -88 -20 -8 -5 -16 -115 -7 -115 1 0 26
9 55 20 113 43 262 19 278 -44 10 -40 -2 -46 -84 -46 -115 -1 -221 -27 -258
-65 -62 -61 -58 -202 7 -262 28 -26 99 -53 138 -53 45 0 119 30 152 61 36 33
49 30 49 -12 l0 -29 86 0 86 0 -4 208 c-5 231 -10 256 -72 310 -59 51 -201 71
-338 47z m240 -332 c4 -37 -19 -86 -55 -119 -37 -34 -110 -34 -142 0 -43 46
-25 122 34 147 11 4 52 7 90 6 l70 -2 3 -32z"/>
<path d="M11070 4045 c-25 -8 -64 -30 -87 -50 l-42 -35 -3 37 -3 38 -82 0
c-46 0 -83 -3 -83 -7 0 -5 0 -129 0 -278 l0 -270 85 0 85 0 0 174 c0 96 4 186
9 199 6 14 22 37 38 51 24 23 36 26 77 24 40 -3 53 -8 70 -31 19 -26 21 -44
24 -223 l4 -194 79 0 79 0 0 208 c0 120 -5 224 -11 247 -16 55 -64 98 -128
113 -62 14 -54 14 -111 -3z"/>
<path d="M11631 4043 c-99 -35 -161 -140 -161 -273 0 -96 25 -165 80 -221 86
-89 212 -91 304 -6 37 35 49 26 40 -31 -9 -63 -29 -99 -67 -123 -28 -17 -45
-20 -127 -17 -65 3 -105 10 -127 21 -19 10 -33 13 -34 7 0 -5 -1 -31 -1 -57
-1 -45 0 -47 38 -61 26 -10 77 -15 154 -15 132 -1 202 20 259 75 66 65 66 62
69 396 l3 302 -80 0 -81 0 0 -29 c0 -44 -16 -46 -59 -9 -37 31 -109 59 -149
57 -9 0 -37 -8 -61 -16z m207 -129 c12 -8 29 -29 38 -46 21 -40 21 -155 0
-196 -35 -67 -102 -90 -167 -56 -82 42 -93 226 -16 290 34 29 109 33 145 8z"/>
<path d="M13098 4045 c-43 -8 -82 -16 -88 -20 -8 -5 -16 -115 -7 -115 1 0 26
9 55 20 65 25 189 27 232 5 33 -17 50 -43 50 -74 0 -20 -6 -21 -82 -21 -158
-1 -259 -38 -292 -107 -32 -68 -15 -173 35 -220 28 -26 99 -53 138 -53 45 0
119 30 152 61 36 33 49 30 49 -12 l0 -29 86 0 86 0 -4 213 c-3 200 -4 214 -26
252 -32 55 -74 81 -160 100 -85 17 -118 17 -224 0z m240 -333 c4 -40 -35 -112
-70 -131 -13 -7 -44 -11 -68 -9 -33 2 -48 9 -63 30 -36 48 -18 115 38 139 11
4 52 7 90 6 l70 -2 3 -33z"/>
<path d="M13821 4043 c-63 -22 -124 -88 -146 -159 -24 -78 -17 -212 15 -269
81 -146 229 -178 347 -75 19 17 38 28 43 25 12 -8 1 -93 -17 -128 -24 -49 -68
-67 -158 -67 -45 1 -97 7 -120 16 -22 8 -44 16 -50 17 -6 1 -10 -21 -10 -52 0
-54 0 -54 40 -69 27 -10 77 -15 155 -15 132 -1 202 20 259 75 66 65 66 62 69
396 l3 302 -80 0 -81 0 0 -29 c0 -42 -17 -48 -49 -17 -31 29 -118 66 -154 65
-12 0 -42 -8 -66 -16z m205 -129 c14 -10 32 -30 40 -46 20 -39 20 -157 0 -196
-35 -68 -111 -90 -173 -52 -81 49 -86 227 -7 289 33 26 104 28 140 5z"/>
<path d="M14615 4045 c-69 -17 -106 -37 -147 -83 -56 -62 -71 -115 -66 -224 3
-52 11 -104 19 -118 49 -89 109 -129 222 -151 60 -11 81 -11 167 4 144 25 150
29 150 94 0 52 -11 67 -35 44 -20 -18 -125 -41 -190 -41 -51 0 -76 5 -102 21
-36 22 -63 65 -63 99 0 20 5 20 211 20 l212 0 -6 78 c-9 142 -75 222 -212 258
-59 16 -93 16 -160 -1z m155 -115 c31 -22 55 -72 46 -95 -4 -12 -27 -15 -121
-15 -128 0 -138 5 -111 58 36 69 126 94 186 52z"/>
<path d="M12240 3843 c0 -215 8 -262 53 -318 26 -33 97 -65 143 -65 36 0 107
29 146 60 20 17 39 30 42 30 3 0 6 -16 6 -35 l0 -35 85 0 85 0 0 280 0 280
-85 0 -85 0 0 -176 c0 -184 -3 -198 -48 -246 -21 -23 -34 -28 -73 -28 -89 0
-99 27 -99 283 l0 167 -85 0 -85 0 0 -197z"/>
</g>
</svg>
